<svg xmlns="http://www.w3.org/2000/svg" xmlns:xlink="http://www.w3.org/1999/xlink" width="221.83" height="55.157" viewBox="0 0 221.83 55.157"><defs><clipPath id="a"><path d="M0,38.21H221.83V-16.947H0Z" transform="translate(0 16.947)" fill="none"/></clipPath></defs><g transform="translate(0 16.947)"><g transform="translate(0 -16.947)" clip-path="url(#a)"><g transform="translate(48.157 3.845)"><path d="M120.312,25.392v-36.1h-6.666V23.423l-1.816,1.868h-4.947V31.3h6.864a2.875,2.875,0,0,0,1.465-.3l4.293-4.394a2.523,2.523,0,0,0,.807-1.211m-19.841-1.969h7.069L106.535,20.5,95.775-10.705H86.486L74.724,23.423h7.069l2.825-8.684H97.643Zm-4.9-14.994H86.639L90.88-4.6h.5ZM72.8,17.415H59.528v-28.12H52.862V23.423H70.727ZM46.2,13.327V-.609c0-3.684-1.211-6.412-3.635-8.078a15.4,15.4,0,0,0-9.139-2.574,15.388,15.388,0,0,0-9.136,2.574c-2.425,1.666-3.635,4.394-3.635,8.078V13.327c0,3.684,1.211,6.412,3.583,8.127a15.9,15.9,0,0,0,9.188,2.526,15.622,15.622,0,0,0,9.139-2.526c2.425-1.715,3.635-4.443,3.635-8.127M39.534,11.1c0,5-1.917,6.714-6.109,6.714S27.316,16.1,27.316,11.1V1.513c0-5,1.92-6.666,6.109-6.666s6.109,1.666,6.109,6.666ZM19.189,23.423,6.314,6.206,18.935-10.705H11.567L.914,3.381H.41V-10.705H-6.256V23.423H.41V9.389h.5l10.6,14.034Zm-38.422,0h6.666V-10.705h-6.666Zm-13.679,0h6.662V-10.705h-6.662V12.819L-46.747-10.705h-6.614V23.423H-46.7V-.053Z" transform="translate(53.361 11.262)" fill="#003760"/></g></g><g transform="translate(0.001 -16.946)"><g transform="translate(0)"><path d="M0-2.728v-9.736l25.421-4.482h0v9.736Z" transform="translate(0 16.947)" fill="#003760"/></g></g><g transform="translate(0 -2.551)"><path d="M0-8.041l25.424-4.483v9.736L0,1.7Z" transform="translate(0 12.524)" fill="#70c1ef"/></g><g transform="translate(0 11.842)"><path d="M0-3.619,25.424-8.1V1.635L0,6.118Z" transform="translate(0 8.102)" fill="#ffaa29"/></g><g transform="translate(0 26.235)"><g transform="translate(0 0)"><path d="M12.709,8.3,0,.8,25.424-3.679,12.712,8.295Z" transform="translate(0 3.679)" fill="#003760"/></g></g></g></svg>