<svg xmlns="http://www.w3.org/2000/svg" width="338.623" height="92.889" viewBox="0 0 338.623 92.889"><g transform="translate(-139.5 -5765.111)"><path d="M125.3,26.444v-54.5H115.235v51.53l-2.744,2.819H105.02v9.072h10.368a4.351,4.351,0,0,0,2.21-.458l6.479-6.632a3.8,3.8,0,0,0,1.22-1.829M95.341,23.471h10.671l-1.519-4.409L88.252-28.058H74.225L56.465,23.471H67.138l4.269-13.111H91.072ZM87.947.831H74.455l6.4-19.666h.762ZM53.558,14.4H33.52V-28.058H23.458v51.53H50.43ZM13.4,8.225V-12.814c0-5.563-1.829-9.681-5.489-12.2C4.251-27.6-.324-28.9-5.887-28.9s-10.139,1.295-13.8,3.888c-3.658,2.515-5.489,6.632-5.489,12.2V8.225c0,5.565,1.831,9.681,5.412,12.272,3.66,2.516,8.31,3.813,13.875,3.813s10.213-1.3,13.8-3.813c3.66-2.591,5.489-6.707,5.489-12.272M3.336,4.872c0,7.545-2.9,10.137-9.223,10.137s-9.225-2.591-9.225-10.137V-9.612c0-7.547,2.9-10.062,9.225-10.062S3.336-17.159,3.336-9.612Zm-30.72,18.6L-46.822-2.522l19.057-25.536H-38.894L-54.979-6.791h-.762V-28.058H-65.8v51.53h10.062V2.279h.762L-38.97,23.471Zm-58.008,0h10.062v-51.53H-85.392Zm-20.658,0h10.062v-51.53h-10.062V7.463l-20.886-35.521h-9.985v51.53h10.062V-11.975Z" transform="translate(352.826 5794.008)" fill="#fff"/><path d="M0,44.385H338.622V-48.5H0Z" transform="translate(139.501 5813.615)" fill="none"/><path d="M0-40.246l42.079-7.42v16.111L0-24.135Z" transform="translate(139.5 5814.381)" fill="#fff"/><path d="M0-27.807l42.079-7.42v16.111L0-11.7Z" transform="translate(139.5 5825.764)" fill="#70c1ef"/><path d="M0-15.369l42.079-7.42V-6.678L0,.742Z" transform="translate(139.5 5837.146)" fill="#ffaa29"/><path d="M21.036,9.471,0-2.931l42.079-7.42L21.038,9.471Z" transform="translate(139.5 5848.528)" fill="#fff"/><path d="M4.882,3.654A3.079,3.079,0,0,0,1.519.44H-5.335v14.48H1.883A3.22,3.22,0,0,0,4.2,13.978a3.056,3.056,0,0,0,.963-2.271v-1.5a1.214,1.214,0,0,0-.128-.62L3.1,7.681,4.754,6.054a1.222,1.222,0,0,0,.128-.622ZM2.076,5.282.876,6.46H-2.508V2.968H.449c1.285,0,1.628.364,1.628,1.649Zm.278,5.548c0,1.285-.364,1.542-1.8,1.542H-2.508V8.966H.9L2.354,10.4ZM17.713,3.654a3.211,3.211,0,0,0-.879-2.271A2.914,2.914,0,0,0,14.628.44H7.774v14.48H10.6V9.181h2.313l2.934,5.74h3.085l-3.062-6a3.228,3.228,0,0,0,1.842-2.976ZM14.885,4.96c0,1.115-.343,1.672-1.607,1.672H10.6V2.968h2.677c1.285,0,1.607.429,1.607,1.521Zm5.334,5.655A3.987,3.987,0,0,0,21.76,14.02a6.481,6.481,0,0,0,3.878,1.136,6.369,6.369,0,0,0,3.855-1.136,3.948,3.948,0,0,0,1.563-3.405V.44H28.229v9.575a2.466,2.466,0,0,1-.728,2.078,3.048,3.048,0,0,1-1.863.534,3.045,3.045,0,0,1-1.863-.534,2.461,2.461,0,0,1-.73-2.078V.44H20.218Zm25.168,4.305V.44H42.558v9.981L36.69.44H33.884v14.48h2.827V4.96l5.847,9.96Zm14.329,0V.44H56.888v9.981L51.019.44H48.213v14.48H51.04V4.96l5.849,9.96Zm11.931,0V12.372H65.37V8.966h5.1V6.417h-5.1V2.968h6.1V.44H62.542v14.48Zm13.515,0V.44H82.334v9.981L76.465.44H73.659v14.48h2.827V4.96l5.849,9.96ZM101.2,10.294v-2.5H97.755V4.274H95.1V7.789H91.651v2.5H95.1v3.6h2.656v-3.6ZM116.8,14.921V12.372h-6.276V8.966h5.1V6.417h-5.1V2.968h6.105V.44h-8.932v14.48ZM128.749,3.654a3.211,3.211,0,0,0-.879-2.271A2.914,2.914,0,0,0,125.664.44h-6.854v14.48h2.829V9.181h2.313l2.934,5.74h3.085l-3.064-6a3.224,3.224,0,0,0,1.842-2.976ZM125.922,4.96c0,1.115-.343,1.672-1.607,1.672h-2.677V2.968h2.677c1.285,0,1.607.429,1.607,1.521Zm16.234-1.306a3.082,3.082,0,0,0-.921-2.292A3.212,3.212,0,0,0,138.859.44H131.79v14.48H138.9a3.114,3.114,0,0,0,3.256-3.214Zm-2.806,6.961c0,1.35-.45,1.756-1.819,1.756h-2.915v-9.4h2.915c1.369,0,1.819.408,1.819,1.756Zm9.51.963h-.214L146.249.44h-3.127l3.834,14.48h3.62l2.913-11.245h.215l2.913,11.245h3.62L164.069.44h-3.127l-2.4,11.138h-.214L155.417.44h-3.643Zm25.362,3.342h3L172.231.44H168.29L163.3,14.921h3l1.2-3.685h5.525Zm-4.07-11.887h.213l1.779,5.525h-3.792ZM169.6-3.993H166.79v2.871H169.6Zm0,2.871,4.133-2.871h-2.806v2.871h2.806Zm0,2.871,15.016,4.776a3.211,3.211,0,0,0-.879-2.271A2.914,2.914,0,0,0,185.66.44h-6.854v14.48h2.827V9.181h2.313l2.936,5.74h3.083l-3.062-6a3.228,3.228,0,0,0,1.842-2.976ZM185.916,4.96c0,1.115-.343,1.672-1.607,1.672h-2.677V2.968h2.677c1.285,0,1.607.429,1.607,1.521Zm11.994,3.171L194.527.44h-2.741v14.48h2.719V6.054h.086l2.463,5.355h1.928l2.463-5.355h.086v8.867h2.719V.44h-2.742l-3.384,7.691Zm18.272,6.789V12.372h-6.276V8.966H215V6.417h-5.1V2.968h6.1V.44h-8.932v14.48Z" transform="translate(221.403 5842.755)" fill="#fff"/><path d="M0,44.385H338.622V-48.5H0Z" transform="translate(139.501 5813.615)" fill="none"/></g></svg>