<?xml version="1.0" encoding="utf-8"?>
<!-- Generator: Adobe Illustrator 25.4.1, SVG Export Plug-In . SVG Version: 6.00 Build 0)  -->
<svg version="1.1" id="Ebene_1" xmlns="http://www.w3.org/2000/svg" xmlns:xlink="http://www.w3.org/1999/xlink" x="0px" y="0px"
	 viewBox="0 0 378.1 103.7" style="enable-background:new 0 0 378.1 103.7;" xml:space="preserve">
<style type="text/css">
	.st0{fill:#FFFFFF;}
	.st1{fill:#71C1F0;}
	.st2{fill:#FFAA29;}
</style>
<g>
	<g>
		<path class="st0" d="M119.8,58.5H131V0.9h-11.2v39.7L96.5,0.9H85.3v57.5h11.2V18.9L119.8,58.5z M142.8,58.5h11.2V0.9h-11.2V58.5z
			 M207.6,58.5l-21.7-29l21.3-28.5h-12.4l-18,23.7h-0.9V0.9h-11.2v57.5h11.2V34.8h0.9l17.9,23.7H207.6z M241.9,37.7
			c0,8.4-3.2,11.3-10.3,11.3s-10.3-2.9-10.3-11.3V21.5c0-8.4,3.2-11.2,10.3-11.2s10.3,2.8,10.3,11.2V37.7z M253.1,41.4V18
			c0-6.2-2-10.8-6.1-13.6c-4.1-2.9-9.2-4.3-15.4-4.3s-11.3,1.4-15.4,4.3c-4.1,2.8-6.1,7.4-6.1,13.6v23.5c0,6.2,2,10.8,6,13.7
			c4.1,2.8,9.3,4.3,15.5,4.3S243,58,247,55.1C251.1,52.3,253.1,47.7,253.1,41.4 M298,48.3h-22.4V0.9h-11.2v57.5h30.1L298,48.3z
			 M336.4,33.2h-15.1l7.1-22h0.9L336.4,33.2z M344.6,58.5h7.7h4.2l-1.7-4.9L336.7,0.9h-15.7l-19.8,57.5h11.9l4.8-14.6h22L344.6,58.5
			z M378.1,61.8V0.9h-11.2v57.5l-3.1,3.1h-8.3v10.1H367c1.1,0,1.9-0.2,2.5-0.5l7.2-7.4C377.5,63.1,378,62.4,378.1,61.8"/>
	</g>
	<polygon class="st0" points="0,10.1 47,1.8 47,19.8 0,28.1 	"/>
	<polygon class="st1" points="0,36.7 47,28.4 47,46.4 0,54.7 	"/>
	<polygon class="st2" points="0,63.3 47,55 47,73 0,81.3 	"/>
	<polygon class="st0" points="0,89.9 47,81.6 23.5,103.7 	"/>
	<g>
		<path class="st0" d="M332.8,103.3v-2.8h-7v-3.8h5.7v-2.8h-5.7V90h6.8v-2.8h-10v16.2H332.8z M312.4,95.8l-3.8-8.6h-3.1v16.2h3v-9.9
			h0.1l2.8,6h2.2l2.8-6h0.1v9.9h3V87.2h-3.1l-3.8,8.6H312.4z M299,92.2c0,1.2-0.4,1.9-1.8,1.9h-3V90h3c1.4,0,1.8,0.5,1.8,1.7V92.2z
			 M302.2,90.8c0-1-0.3-1.8-1-2.5c-0.6-0.7-1.5-1.1-2.5-1.1h-7.7v16.2h3.2v-6.4h2.6l3.3,6.4h3.4l-3.4-6.7c1.2-0.5,2.1-1.9,2.1-3.3
			V90.8z M285.4,82.2h-3.1v3.2h3.1V82.2z M280.8,82.2h-3.1v3.2h3.1V82.2z M281.4,90.1h0.2l2,6.2h-4.2L281.4,90.1z M286,103.3h3.3
			l-5.6-16.2h-4.4l-5.6,16.2h3.3l1.3-4.1h6.2L286,103.3z M257.6,99.6h-0.2l-2.7-12.4h-3.5l4.3,16.2h4l3.3-12.6h0.2l3.3,12.6h4
			l4.3-16.2h-3.5l-2.7,12.4h-0.2L265,87.2h-4.1L257.6,99.6z M247,98.5c0,1.5-0.5,2-2,2h-3.3V90h3.3c1.5,0,2,0.5,2,2V98.5z
			 M250.2,90.8c0-1-0.3-1.9-1-2.6c-0.7-0.7-1.6-1-2.7-1h-7.9v16.2h7.9c1.1,0,2-0.3,2.6-1c0.7-0.7,1-1.5,1-2.6V90.8z M232,92.2
			c0,1.2-0.4,1.9-1.8,1.9h-3V90h3c1.4,0,1.8,0.5,1.8,1.7V92.2z M235.2,90.8c0-1-0.3-1.8-1-2.5s-1.5-1.1-2.5-1.1h-7.7v16.2h3.2v-6.4
			h2.6l3.3,6.4h3.4l-3.4-6.7c1.2-0.5,2.1-1.9,2.1-3.3V90.8z M221.8,103.3v-2.8h-7v-3.8h5.7v-2.8h-5.7V90h6.8v-2.8h-10v16.2H221.8z
			 M204.4,98.2v-2.8h-3.9v-3.9h-3v3.9h-3.9v2.8h3.9v4h3v-4H204.4z M186.5,103.3V87.2h-3.2v11.1l-6.6-11.1h-3.1v16.2h3.2V92.2
			l6.5,11.1H186.5z M171.4,103.3v-2.8h-7v-3.8h5.7v-2.8h-5.7V90h6.8v-2.8h-10v16.2H171.4z M158.1,103.3V87.2H155v11.1l-6.6-11.1
			h-3.1v16.2h3.2V92.2l6.5,11.1H158.1z M142.1,103.3V87.2H139v11.1l-6.6-11.1h-3.1v16.2h3.2V92.2l6.5,11.1H142.1z M114,98.5
			c0,1.7,0.6,2.9,1.7,3.8c1.2,0.8,2.6,1.3,4.3,1.3c1.7,0,3.2-0.4,4.3-1.3c1.2-0.9,1.7-2.1,1.7-3.8V87.2H123v10.7
			c0,1.1-0.3,1.9-0.8,2.3c-0.6,0.4-1.2,0.6-2.1,0.6c-0.8,0-1.5-0.2-2.1-0.6c-0.6-0.4-0.8-1.2-0.8-2.3V87.2H114V98.5z M108.1,92.2
			c0,1.2-0.4,1.9-1.8,1.9h-3V90h3c1.4,0,1.8,0.5,1.8,1.7V92.2z M111.2,90.8c0-1-0.3-1.8-1-2.5c-0.6-0.7-1.5-1.1-2.5-1.1h-7.7v16.2
			h3.2v-6.4h2.6l3.3,6.4h3.4l-3.4-6.7c1.2-0.5,2.1-1.9,2.1-3.3V90.8z M94.1,98.8c0,1.4-0.4,1.7-2,1.7h-3.4v-3.8h3.8l1.6,1.6V98.8z
			 M93.8,92.6l-1.3,1.3h-3.8V90h3.3c1.4,0,1.8,0.4,1.8,1.8V92.6z M96.9,90.8c0-2.1-1.4-3.6-3.8-3.6h-7.7v16.2h8.1
			c1,0,1.9-0.4,2.6-1.1c0.7-0.7,1.1-1.6,1.1-2.5v-1.7c0-0.3,0-0.5-0.1-0.7l-2.2-2.1l1.8-1.8c0.1-0.2,0.1-0.4,0.1-0.7V90.8z"/>
	</g>
</g>
</svg>
