<svg id="Ebene_1" data-name="Ebene 1" xmlns="http://www.w3.org/2000/svg" viewBox="0 0 544 135.26"><defs><style>.cls-1{fill:#003761;}.cls-2{fill:#71c1f0;}.cls-3{fill:#ffaa29;}</style></defs><path class="cls-1" d="M168.24,94.49h16.35V10.79H168.24v57.7l-33.92-57.7H118.1v83.7h16.34V36.91Zm33.55,0h16.35V10.79H201.79Zm94.22,0L264.44,52.27l30.95-41.48H277.32L251.19,45.33H250V10.79H233.61v83.7H250V60.07h1.23l26,34.42Zm49.9-30.21c0,12.25-4.71,16.46-15,16.46s-15-4.21-15-16.46V40.75c0-12.25,4.7-16.34,15-16.34s15,4.09,15,16.34Zm16.34,5.44V35.55c0-9-3-15.72-8.91-19.81S340,9.43,330.93,9.43s-16.47,2.1-22.41,6.31-8.92,10.77-8.92,19.81V69.72c0,9,3,15.73,8.79,19.94s13.5,6.19,22.54,6.19,16.59-2.11,22.41-6.19,8.91-10.9,8.91-19.94m65.23,10H394.94v-69H378.59v83.7H422.4Zm55.85-22H461.42l10.4-31.94h1.24Zm12,36.78h17.34l-2.47-7.16L483.83,10.79H461.05L432.2,94.49h17.33l6.94-21.3h31.94ZM544,99.31V10.79H527.66v83.7l-4.46,4.58H511.07V113.8H527.9a7.1,7.1,0,0,0,3.59-.74L542,102.29a6.2,6.2,0,0,0,2-3"/><polygon class="cls-1" points="0 10.99 62.35 0 62.35 23.88 0 34.87 0 10.99"/><polygon class="cls-2" points="0 46.29 62.35 35.3 62.35 59.17 0 70.17 0 46.29"/><polygon class="cls-3" points="0 81.59 62.35 70.59 62.35 94.47 0 105.46 0 81.59"/><polygon class="cls-1" points="31.17 135.26 0 116.88 62.35 105.89 31.17 135.26 31.17 135.26"/></svg>