<svg id="Ebene_1" data-name="Ebene 1" xmlns="http://www.w3.org/2000/svg" viewBox="0 0 499.41 137"><defs><style>.cls-1{fill:#003761;}.cls-2{fill:#71c1f0;}.cls-3{fill:#ffaa29;}</style></defs><path class="cls-1" d="M158.21,77.23h14.84v-76H158.21V53.63L127.41,1.24H112.68v76h14.84V25Zm30.47,0h14.84v-76H188.68Zm85.55,0L245.56,38.9,273.67,1.24H257.26L233.53,32.6h-1.12V1.24H217.57v76h14.84V46h1.12l23.61,31.25ZM319.54,49.8c0,11.13-4.27,15-13.61,15s-13.6-3.83-13.6-15V28.44c0-11.13,4.27-14.84,13.6-14.84s13.61,3.71,13.61,14.84Zm14.84,5v-31c0-8.2-2.7-14.28-8.1-18S314.14,0,305.93,0,291,1.91,285.59,5.73s-8.1,9.79-8.1,18v31c0,8.21,2.7,14.28,8,18.1s12.26,5.62,20.46,5.62,15.07-1.91,20.35-5.62,8.1-9.89,8.1-18.1m59.23,9.11H364.06V1.24H349.22v76H389Zm50.71-20H424.43l9.44-29H435Zm10.91,33.38H471l-2.24-6.49-24-69.5H424.09l-26.2,76h15.74l6.3-19.33h29Zm44.18,4.39V1.24H484.57v76l-4.05,4.16h-11V94.77h15.29a6.37,6.37,0,0,0,3.26-.67l9.56-9.78a5.63,5.63,0,0,0,1.8-2.7"/><polygon class="cls-1" points="0 13.31 62.06 2.37 62.06 26.13 0 37.07 0 13.31"/><polygon class="cls-2" points="0 48.44 62.06 37.5 62.06 61.26 0 72.2 0 48.44"/><polygon class="cls-3" points="0 83.57 62.06 72.63 62.06 96.39 0 107.33 0 83.57"/><polygon class="cls-1" points="0 118.7 62.06 107.76 31.03 137 0 118.7"/><path class="cls-1" d="M439.62,136.52v-3.76h-9.25v-5h7.52V124h-7.52v-5.09h9v-3.73H426.2v21.36Zm-26.94-10-5-11.34h-4.05v21.36h4V123.44h.13l3.63,7.9h2.85l3.63-7.9H418v13.08h4V115.16h-4l-5,11.34ZM395,121.83c0,1.64-.51,2.46-2.37,2.46h-3.95v-5.4h3.95c1.89,0,2.37.63,2.37,2.24Zm4.17-1.93a4.71,4.71,0,0,0-1.3-3.35,4.31,4.31,0,0,0-3.25-1.39H384.5v21.36h4.17v-8.47h3.41l4.33,8.47H401l-4.52-8.85a4.76,4.76,0,0,0,2.72-4.39ZM377,108.62h-4.13v4.24H377Zm-6.09,0h-4.14v4.24h4.14Zm.82,10.36h.31l2.63,8.15h-5.6Zm6,17.54h4.42l-7.36-21.36H369l-7.36,21.36h4.42l1.77-5.44H376Zm-37.4-4.93H340l-3.54-16.43h-4.61l5.66,21.36h5.33l4.3-16.59h.32l4.29,16.59h5.34l5.66-21.36h-4.62l-3.53,16.43h-.32L350,115.16h-5.37Zm-14-1.42c0,2-.66,2.59-2.68,2.59h-4.3V118.89h4.3c2,0,2.68.6,2.68,2.59Zm4.14-10.27a4.54,4.54,0,0,0-1.36-3.38,4.71,4.71,0,0,0-3.51-1.36H315.16v21.36h10.49a4.6,4.6,0,0,0,4.8-4.74Zm-23.95,1.93c0,1.64-.5,2.46-2.36,2.46h-3.95v-5.4h3.95c1.89,0,2.36.63,2.36,2.24Zm4.17-1.93a4.74,4.74,0,0,0-1.29-3.35,4.31,4.31,0,0,0-3.25-1.39H296v21.36h4.17v-8.47h3.41l4.33,8.47h4.55L308,127.67a4.75,4.75,0,0,0,2.71-4.39Zm-17.62,16.62v-3.76h-9.26v-5h7.52V124h-7.52v-5.09h9v-3.73H279.62v21.36Zm-23-6.83V126H265v-5.18h-3.91V126H256v3.69h5.09V135H265v-5.31Zm-23.66,6.83V115.16h-4.17v14.72l-8.66-14.72h-4.13v21.36h4.17V121.83l8.62,14.69Zm-19.93,0v-3.76H217.2v-5h7.52V124H217.2v-5.09h9v-3.73H213v21.36Zm-17.6,0V115.16h-4.17v14.72L196,115.16H191.9v21.36h4.17V121.83l8.62,14.69Zm-21.13,0V115.16h-4.17v14.72l-8.66-14.72h-4.14v21.36h4.17V121.83l8.63,14.69Zm-37.12-6.35a5.88,5.88,0,0,0,2.28,5,9.5,9.5,0,0,0,5.71,1.67,9.38,9.38,0,0,0,5.69-1.67,5.82,5.82,0,0,0,2.31-5v-15h-4.17v14.12c0,1.49-.35,2.53-1.08,3.07a5.18,5.18,0,0,1-5.5,0c-.72-.54-1.07-1.58-1.07-3.07V115.16h-4.17Zm-7.86-8.34c0,1.64-.51,2.46-2.37,2.46h-3.95v-5.4h3.95c1.89,0,2.37.63,2.37,2.24Zm4.16-1.93a4.74,4.74,0,0,0-1.29-3.35,4.31,4.31,0,0,0-3.25-1.39H132.26v21.36h4.17v-8.47h3.41l4.33,8.47h4.55l-4.52-8.85a4.75,4.75,0,0,0,2.71-4.39Zm-22.65,10.58c0,1.9-.53,2.28-2.65,2.28h-4.52v-5h5l2.14,2.12Zm-.41-8.18L122.09,124h-5v-5.15h4.36c1.9,0,2.4.54,2.4,2.43Zm4.14-2.4c0-2.75-1.8-4.74-5-4.74H112.92v21.36h10.65a4.77,4.77,0,0,0,3.41-1.39,4.52,4.52,0,0,0,1.42-3.35v-2.21a1.78,1.78,0,0,0-.19-.92l-2.84-2.81,2.43-2.4a1.78,1.78,0,0,0,.19-.92Z"/></svg>